<svg width="28" height="28" viewBox="0 0 28 28" fill="currentColor" xmlns="http://www.w3.org/2000/svg">
<path d="M19.8333 12.8333H10.9783L14.8283 8.99498C15.048 8.77529 15.1714 8.47733 15.1714 8.16665C15.1714 7.85596 15.048 7.558 14.8283 7.33832C14.6086 7.11863 14.3107 6.99521 14 6.99521C13.6893 6.99521 13.3913 7.11863 13.1716 7.33832L7.33831 13.1716C7.2321 13.2826 7.14884 13.4134 7.09331 13.5566C6.97663 13.8407 6.97663 14.1593 7.09331 14.4433C7.14884 14.5865 7.2321 14.7174 7.33831 14.8283L13.1716 20.6616C13.2801 20.771 13.4091 20.8578 13.5513 20.917C13.6935 20.9763 13.846 21.0067 14 21.0067C14.154 21.0067 14.3065 20.9763 14.4487 20.917C14.5908 20.8578 14.7199 20.771 14.8283 20.6616C14.9377 20.5532 15.0245 20.4242 15.0837 20.282C15.1429 20.1398 15.1734 19.9873 15.1734 19.8333C15.1734 19.6793 15.1429 19.5268 15.0837 19.3846C15.0245 19.2425 14.9377 19.1134 14.8283 19.005L10.9783 15.1666H19.8333C20.1427 15.1666 20.4395 15.0437 20.6583 14.8249C20.8771 14.6061 21 14.3094 21 14C21 13.6906 20.8771 13.3938 20.6583 13.175C20.4395 12.9562 20.1427 12.8333 19.8333 12.8333Z" fill="currentColor"/>
</svg>
