<svg width="6" height="10" viewBox="0 0 6 10" fill="none" xmlns="http://www.w3.org/2000/svg">
<path d="M5.35835 4.40834L1.82501 0.875008C1.74754 0.796901 1.65538 0.734906 1.55383 0.692598C1.45228 0.650291 1.34336 0.62851 1.23335 0.62851C1.12334 0.62851 1.01442 0.650291 0.912866 0.692598C0.811317 0.734906 0.719149 0.796901 0.64168 0.875008C0.486471 1.03114 0.399353 1.24235 0.399353 1.46251C0.399353 1.68266 0.486471 1.89387 0.64168 2.05001L3.59168 5.00001L0.64168 7.95001C0.486471 8.10614 0.399353 8.31735 0.399353 8.53751C0.399353 8.75766 0.486471 8.96887 0.64168 9.12501C0.719547 9.20224 0.811894 9.26335 0.913425 9.30482C1.01496 9.34629 1.12367 9.36731 1.23335 9.36667C1.34302 9.36731 1.45174 9.34629 1.55327 9.30482C1.6548 9.26335 1.74715 9.20224 1.82501 9.12501L5.35835 5.59167C5.43645 5.5142 5.49845 5.42204 5.54076 5.32049C5.58306 5.21894 5.60485 5.11002 5.60485 5.00001C5.60485 4.89 5.58306 4.78108 5.54076 4.67953C5.49845 4.57798 5.43645 4.48581 5.35835 4.40834Z" fill="#E5E5E5"/>
</svg>
